# xmcd
#
# Track frame offsets:
#	150
#	13498
#	32964
#	52544
#	69235
#	90900
#	105181
#	121686
#	141162
#	152626
#
# Disc length: 2313 seconds
#
# Revision: 3
# Processed by: cddbd v1.5.2PL0 Copyright (c) Steve Scherf et al.
# Submitted via: EasyCDDAExtractor 15.3.0.1
#
DISCID=6d09070a
DTITLE=Melina Leon Y Los Tri~O - Serenata En San Juan
DYEAR=2006
DGENRE=Latin
TTITLE0=Desvelo De Amor
TTITLE1=Amor Perdido
TTITLE2=Amada Mia
TTITLE3=Madrigal
TTITLE4=Nuestro Juramento
TTITLE5=Obsesion
TTITLE6=Poquita Fe
TTITLE7=Perdon
TTITLE8=Por Que Ahora
TTITLE9=Recuerdos Medley (En Mi Viejo San Juan, Ahora Seremos Felices, Piel Ca
TTITLE9=nela)
EXTD=
EXTT0=
EXTT1=
EXTT2=
EXTT3=
EXTT4=
EXTT5=
EXTT6=
EXTT7=
EXTT8=
EXTT9=
PLAYORDER=
